<svg xmlns="http://www.w3.org/2000/svg" width="24" height="24" viewBox="0 0 24 24" fill="none">
    <mask id="mask0_467_1826" style="mask-type:alpha" maskUnits="userSpaceOnUse" x="0" y="0" width="24" height="24">
        <rect width="24" height="24" fill="#D9D9D9"/>
    </mask>
    <g mask="url(#mask0_467_1826)">
        <path d="M6.07693 17L4.37308 18.7038C4.12051 18.9564 3.82852 19.0144 3.4971 18.8779C3.1657 18.7413 3 18.4929 3 18.1327V4.61537C3 4.15512 3.15417 3.77083 3.4625 3.4625C3.77083 3.15417 4.15513 3 4.61538 3H19.3846C19.8449 3 20.2292 3.15417 20.5375 3.4625C20.8458 3.77083 21 4.15512 21 4.61537V15.3846C21 15.8449 20.8458 16.2292 20.5375 16.5375C20.2292 16.8458 19.8449 17 19.3846 17H6.07693Z" fill="#FF1919"/>
    </g>
</svg>
