<svg xmlns="http://www.w3.org/2000/svg" width="16" height="16" viewBox="0 0 16 16" fill="none">
    <mask id="mask0_575_1807" style="mask-type:alpha" maskUnits="userSpaceOnUse" x="0" y="0" width="16" height="16">
        <rect width="16" height="16" fill="#D9D9D9"/>
    </mask>
    <g mask="url(#mask0_575_1807)">
        <path d="M6.32259 9.86669L11.9948 4.20556C12.1704 4.03149 12.3782 3.94446 12.6182 3.94446C12.8582 3.94446 13.0652 4.03169 13.2393 4.20614C13.4133 4.38061 13.5004 4.58913 13.5004 4.83171C13.5004 5.07427 13.4133 5.28408 13.2393 5.46111L6.95037 11.75C6.77361 11.9241 6.56368 12.0111 6.32058 12.0111C6.07747 12.0111 5.86889 11.9241 5.69482 11.75L2.75037 8.80556C2.5763 8.62803 2.48926 8.4179 2.48926 8.17519C2.48926 7.93248 2.57649 7.72409 2.75096 7.55001C2.92542 7.37594 3.13394 7.28891 3.37651 7.28891C3.61909 7.28891 3.82889 7.37594 4.00592 7.55001L6.32259 9.86669Z" fill="#FAFBFC"/>
    </g>
</svg>
