<svg width="24" height="24" viewBox="0 0 24 24" fill="none" xmlns="http://www.w3.org/2000/svg">
<mask id="mask0_569_487" style="mask-type:alpha" maskUnits="userSpaceOnUse" x="0" y="0" width="24" height="24">
<rect width="24" height="24" fill="#D9D9D9"/>
</mask>
<g mask="url(#mask0_569_487)">
<path d="M20.0251 9.37497L18.9809 8.33077L19.5962 7.6904C19.6603 7.62628 19.6924 7.55415 19.6924 7.47402C19.6924 7.39389 19.6603 7.32177 19.5962 7.25767L16.7424 4.40385C16.6783 4.33975 16.6062 4.3077 16.5261 4.3077C16.4459 4.3077 16.3738 4.33975 16.3097 4.40385L15.6693 5.01922L14.6001 3.95002L15.254 3.27117C15.5924 2.93272 16.0097 2.76766 16.5059 2.776C17.002 2.78433 17.4193 2.95772 17.7578 3.29617L20.7039 6.24232C21.0424 6.58077 21.2116 6.99391 21.2116 7.48172C21.2116 7.96954 21.0424 8.38267 20.7039 8.72112L20.0251 9.37497ZM8.74627 20.6788C8.40782 21.0172 7.99468 21.1864 7.50687 21.1864C7.01905 21.1864 6.60592 21.0172 6.26747 20.6788L3.35979 17.7711C3.01493 17.4262 2.84249 17.0003 2.84249 16.4932C2.84249 15.9862 3.01493 15.5602 3.35979 15.2153L3.97517 14.6L5.04437 15.6692L4.41362 16.2845C4.3495 16.3487 4.31744 16.4208 4.31744 16.5009C4.31744 16.5811 4.3495 16.6532 4.41362 16.7173L7.28282 19.5865C7.34692 19.6506 7.41903 19.6826 7.49917 19.6826C7.5793 19.6826 7.65143 19.6506 7.71554 19.5865L8.33092 18.9557L9.40012 20.0249L8.74627 20.6788ZM18.5751 13.0769L19.8559 11.7961C19.92 11.732 19.952 11.6583 19.952 11.575C19.952 11.4916 19.92 11.4179 19.8559 11.3538L12.6463 4.14422C12.5822 4.0801 12.5085 4.04805 12.4251 4.04805C12.3418 4.04805 12.2681 4.0801 12.2039 4.14422L10.9232 5.42497C10.8591 5.48907 10.827 5.56119 10.827 5.64132C10.827 5.72147 10.8591 5.7936 10.9232 5.8577L18.1424 13.0769C18.2065 13.141 18.2786 13.1731 18.3588 13.1731C18.4389 13.1731 18.511 13.141 18.5751 13.0769ZM11.7963 19.8557L13.077 18.5596C13.1412 18.4955 13.1732 18.4234 13.1732 18.3432C13.1732 18.2631 13.1412 18.191 13.077 18.1269L5.87322 10.923C5.80912 10.8589 5.737 10.8269 5.65687 10.8269C5.57673 10.8269 5.50461 10.8589 5.44049 10.923L4.14437 12.2038C4.08025 12.2679 4.04819 12.3416 4.04819 12.425C4.04819 12.5083 4.08025 12.582 4.14437 12.6461L11.3539 19.8557C11.4181 19.9198 11.4918 19.9519 11.5751 19.9519C11.6585 19.9519 11.7322 19.9198 11.7963 19.8557ZM11.3674 14.2942L14.3097 11.3673L12.6328 9.69035L9.70587 12.6327L11.3674 14.2942ZM12.8559 20.9095C12.511 21.2544 12.0841 21.4268 11.5751 21.4268C11.0662 21.4268 10.6392 21.2544 10.2944 20.9095L3.09054 13.7057C2.74568 13.3609 2.57324 12.9339 2.57324 12.425C2.57324 11.916 2.74568 11.4891 3.09054 11.1442L4.37129 9.85385C4.71616 9.50898 5.14212 9.33655 5.64917 9.33655C6.15622 9.33655 6.58218 9.50898 6.92704 9.85385L8.63667 11.5635L11.579 8.62115L9.86937 6.9269C9.5245 6.58203 9.35207 6.1535 9.35207 5.64132C9.35207 5.12915 9.5245 4.70064 9.86937 4.35577L11.1597 3.0654C11.5046 2.72053 11.9306 2.5481 12.4376 2.5481C12.9447 2.5481 13.3706 2.72053 13.7155 3.0654L20.9347 10.2846C21.2796 10.6295 21.452 11.0554 21.452 11.5625C21.452 12.0695 21.2796 12.4955 20.9347 12.8403L19.6443 14.1307C19.2995 14.4756 18.8709 14.648 18.3588 14.648C17.8466 14.648 17.4181 14.4756 17.0732 14.1307L15.3789 12.4211L12.4366 15.3634L14.1462 17.073C14.4911 17.4179 14.6635 17.8439 14.6635 18.3509C14.6635 18.858 14.4911 19.2839 14.1462 19.6288L12.8559 20.9095Z" fill="#FF6C19"/>
</g>
</svg>
