<svg xmlns="http://www.w3.org/2000/svg" width="24" height="24" viewBox="0 0 24 24" fill="none">
    <mask id="mask0_467_1862" style="mask-type:alpha" maskUnits="userSpaceOnUse" x="0" y="0" width="24" height="24">
        <rect width="24" height="24" fill="#D9D9D9"/>
    </mask>
    <g mask="url(#mask0_467_1862)">
        <path d="M6 19H9.6923V13.1154H14.3077V19H18V10L12 5.46155L6 10V19ZM6 20C5.73205 20 5.49839 19.9003 5.29902 19.701C5.09967 19.5016 5 19.2679 5 19V10C5 9.84318 5.03507 9.69462 5.10522 9.55432C5.17537 9.41402 5.27235 9.29847 5.39615 9.20767L11.3962 4.66922C11.4897 4.59999 11.5866 4.55127 11.6869 4.52307C11.7871 4.49487 11.8914 4.48077 12 4.48077C12.1086 4.48077 12.2129 4.49487 12.3131 4.52307C12.4134 4.55127 12.5103 4.59999 12.6038 4.66922L18.6039 9.20767C18.7277 9.29847 18.8246 9.41402 18.8948 9.55432C18.9649 9.69462 19 9.84318 19 10V19C19 19.2679 18.9003 19.5016 18.701 19.701C18.5016 19.9003 18.268 20 18 20H13.3077V14.1154H10.6923V20H6Z" fill="#7A7B7D"/>
    </g>
</svg>
