<svg width="33" height="33" viewBox="0 0 33 33" fill="none" xmlns="http://www.w3.org/2000/svg">
<path d="M30.4656 17.3974C30.4656 18.4489 30.0976 19.3413 29.3616 20.0746C28.6256 20.8079 27.7318 21.1746 26.6803 21.1746C25.6289 21.1746 24.7365 20.8066 24.0031 20.0706C23.2698 19.3345 22.9031 18.4408 22.9031 17.3893C22.9031 16.3378 23.2711 15.4454 24.0072 14.7121C24.7432 13.9788 25.6369 13.6121 26.6884 13.6121C27.7399 13.6121 28.6323 13.9801 29.3656 14.7162C30.099 15.4522 30.4656 16.3459 30.4656 17.3974ZM19.1219 17.3934L12.7281 23.7871L11.2844 22.3434L15.1687 18.4246H3V16.3621H15.1687L11.2844 12.4777L12.7281 10.9996L19.1219 17.3934Z" fill="#FF6C19"/>
<path d="M19.1219 17.3934L12.7281 23.7871L11.2844 22.3434L15.1687 18.4246H3V16.3621H15.1687L11.2844 12.4777L12.7281 10.9996L19.1219 17.3934Z" fill="#FF6C19"/>
</svg>
