<svg width="56" height="17" viewBox="0 0 56 17" fill="none" xmlns="http://www.w3.org/2000/svg">
    <rect x="5.01465" y="0.495117" width="2.50023" height="11.7319" rx="1" transform="rotate(16.6252 5.01465 0.495117)" fill="#FF6C19"/>
    <rect x="2.91602" y="1.47363" width="1.5386" height="8.65465" rx="0.769302" transform="rotate(16.6252 2.91602 1.47363)" fill="#FF6C19"/>
    <rect width="2.50023" height="11.7319" rx="1" transform="matrix(-0.958197 -0.286111 -0.286111 0.958197 18.2832 4.45703)" fill="#FF6C19"/>
    <rect width="1.5386" height="8.65465" rx="0.769302" transform="matrix(-0.958197 -0.286111 -0.286111 0.958197 19.501 6.42676)" fill="#FF6C19"/>
    <rect x="5.99902" y="6.60938" width="8.46232" height="0.769302" rx="0.384651" transform="rotate(16.6252 5.99902 6.60938)" fill="#FF6C19"/>
    <path d="M29.411 14.24C29.1977 14.24 29.091 14.1333 29.091 13.92V11.152C29.091 10.928 29.1977 10.816 29.411 10.816H37.955V10.16H29.411C29.1977 10.16 29.091 10.0533 29.091 9.84V8.992C29.091 8.77867 29.1977 8.672 29.411 8.672H40.787C41.0003 8.672 41.107 8.77867 41.107 8.992V11.744C41.107 11.9467 41.0003 12.048 40.787 12.048H32.259V12.736H40.931C41.1443 12.736 41.251 12.8427 41.251 13.056V13.92C41.251 14.1333 41.1443 14.24 40.931 14.24H29.411ZM34.355 6.112C34.355 6.42133 34.2857 6.69333 34.147 6.928C34.0083 7.16267 33.811 7.36 33.555 7.52C33.299 7.68 32.995 7.80267 32.643 7.888C32.291 7.97333 31.907 8.016 31.491 8.016C31.0857 8.016 30.707 7.97333 30.355 7.888C30.0137 7.80267 29.715 7.68 29.459 7.52C29.2137 7.36 29.0163 7.16267 28.867 6.928C28.7283 6.69333 28.659 6.42133 28.659 6.112V5.936C28.659 5.63733 28.7283 5.37067 28.867 5.136C29.0057 4.89067 29.1977 4.688 29.443 4.528C29.699 4.368 29.9977 4.24533 30.339 4.16C30.691 4.07467 31.075 4.032 31.491 4.032C31.907 4.032 32.291 4.07467 32.643 4.16C32.995 4.24533 33.2937 4.368 33.539 4.528C33.795 4.688 33.9923 4.89067 34.131 5.136C34.2803 5.37067 34.355 5.63733 34.355 5.936V6.112ZM35.587 6.288H34.947C34.7443 6.288 34.643 6.18133 34.643 5.968V4.336C34.643 4.112 34.7443 4 34.947 4H35.587V1.648C35.587 1.424 35.6937 1.312 35.907 1.312H37.667C37.8803 1.312 37.987 1.424 37.987 1.648V7.456C37.987 7.66933 37.8803 7.776 37.667 7.776H35.907C35.6937 7.776 35.587 7.66933 35.587 7.456V6.288ZM38.691 1.6C38.691 1.376 38.7977 1.264 39.011 1.264H40.787C41.0003 1.264 41.107 1.376 41.107 1.6V7.536C41.107 7.74933 41.0003 7.856 40.787 7.856H39.011C38.7977 7.856 38.691 7.74933 38.691 7.536V1.6ZM28.467 2.032C28.467 1.81867 28.579 1.712 28.803 1.712H30.275V0.959999C30.275 0.735999 30.387 0.624 30.611 0.624H32.499C32.723 0.624 32.835 0.735999 32.835 0.959999V1.712H34.211C34.4457 1.712 34.563 1.81867 34.563 2.032V3.216C34.563 3.312 34.531 3.392 34.467 3.456C34.4137 3.52 34.3283 3.552 34.211 3.552H28.803C28.6857 3.552 28.6003 3.52 28.547 3.456C28.4937 3.392 28.467 3.312 28.467 3.216V2.032ZM32.067 6.016C32.067 5.87733 32.0243 5.74933 31.939 5.632C31.8643 5.504 31.715 5.44 31.491 5.44C31.2777 5.44 31.1337 5.504 31.059 5.632C30.9843 5.76 30.947 5.89333 30.947 6.032C30.947 6.18133 30.9843 6.31467 31.059 6.432C31.1337 6.54933 31.2777 6.608 31.491 6.608C31.715 6.608 31.8643 6.544 31.939 6.416C32.0243 6.288 32.067 6.15467 32.067 6.016ZM47.824 14.64C46.3627 14.64 45.2533 14.4107 44.496 13.952C43.7493 13.4933 43.376 12.7733 43.376 11.792C43.376 10.8 43.7493 10.08 44.496 9.632C45.2533 9.17333 46.3627 8.944 47.824 8.944H50.864C52.3253 8.944 53.4187 9.17333 54.144 9.632C54.8693 10.08 55.232 10.8 55.232 11.792C55.232 12.7733 54.8693 13.4933 54.144 13.952C53.4187 14.4107 52.3253 14.64 50.864 14.64H47.824ZM42.688 1.744C42.688 1.53067 42.8 1.424 43.024 1.424H50.912C51.136 1.424 51.248 1.53067 51.248 1.744V3.216C51.248 3.42933 51.136 3.536 50.912 3.536H50.032L48.096 7.584C48.0533 7.66933 48.0053 7.744 47.952 7.808C47.8987 7.86133 47.8187 7.888 47.712 7.888H45.808C45.7013 7.888 45.6107 7.86133 45.536 7.808C45.472 7.744 45.4667 7.65867 45.52 7.552L47.36 3.536H46.88L44.944 7.584C44.9013 7.66933 44.8533 7.744 44.8 7.808C44.7467 7.86133 44.6667 7.888 44.56 7.888H42.656C42.5493 7.888 42.4587 7.86133 42.384 7.808C42.32 7.744 42.3147 7.65867 42.368 7.552L44.208 3.536H43.024C42.8 3.536 42.688 3.42933 42.688 3.216V1.744ZM53.12 7.952C52.8747 7.952 52.6827 7.94667 52.544 7.936C52.4053 7.91467 52.2987 7.89333 52.224 7.872C52.1493 7.84 52.1013 7.808 52.08 7.776C52.0587 7.73333 52.048 7.68533 52.048 7.632V1.6C52.048 1.376 52.16 1.264 52.384 1.264H54.576C54.8 1.264 54.912 1.376 54.912 1.6V3.376H55.68C55.8933 3.376 56 3.488 56 3.712V5.584C56 5.79733 55.8933 5.904 55.68 5.904H54.912V7.632C54.912 7.84533 54.8 7.952 54.576 7.952H53.12ZM50.864 12.672C51.312 12.672 51.616 12.5973 51.776 12.448C51.9467 12.288 52.032 12.0693 52.032 11.792C52.032 11.5147 51.9467 11.3013 51.776 11.152C51.616 10.992 51.312 10.912 50.864 10.912H47.824C47.376 10.912 47.056 10.9867 46.864 11.136C46.672 11.2747 46.576 11.4933 46.576 11.792C46.576 12.1013 46.672 12.3253 46.864 12.464C47.056 12.6027 47.376 12.672 47.824 12.672H50.864ZM49.04 7.344C48.9547 7.12 48.9547 6.92267 49.04 6.752L50 4.736C50.0533 4.61867 50.1227 4.56 50.208 4.56C50.304 4.56 50.3787 4.61867 50.432 4.736L51.584 7.472C51.6267 7.57867 51.6107 7.67467 51.536 7.76C51.472 7.83467 51.3867 7.872 51.28 7.872H49.456C49.3493 7.872 49.2747 7.84533 49.232 7.792C49.1893 7.728 49.152 7.65333 49.12 7.568L49.04 7.344Z" fill="#FF6C19"/>
</svg>
