<svg xmlns="http://www.w3.org/2000/svg" width="24" height="24" viewBox="0 0 24 24" fill="none">
    <mask id="mask0_467_1838" style="mask-type:alpha" maskUnits="userSpaceOnUse" x="0" y="0" width="24" height="24">
        <rect width="24" height="24" fill="#D9D9D9"/>
    </mask>
    <g mask="url(#mask0_467_1838)">
        <path d="M6.19615 17.4846C7.04615 16.8731 7.94808 16.3894 8.90193 16.0337C9.85578 15.6779 10.8885 15.5 12 15.5C13.1115 15.5 14.1442 15.6779 15.0981 16.0337C16.0519 16.3894 16.9539 16.8731 17.8039 17.4846C18.4641 16.8013 18.9952 15.9942 19.3971 15.0634C19.799 14.1327 20 13.1115 20 12C20 9.78333 19.2208 7.89583 17.6625 6.3375C16.1042 4.77917 14.2167 4 12 4C9.78333 4 7.89583 4.77917 6.3375 6.3375C4.77917 7.89583 4 9.78333 4 12C4 13.1115 4.20096 14.1327 4.60288 15.0634C5.00481 15.9942 5.5359 16.8013 6.19615 17.4846ZM12 12.5C11.1577 12.5 10.4471 12.2106 9.86827 11.6317C9.28942 11.0529 9 10.3423 9 9.5C9 8.65768 9.28942 7.94711 9.86827 7.36828C10.4471 6.78943 11.1577 6.5 12 6.5C12.8423 6.5 13.5529 6.78943 14.1317 7.36828C14.7106 7.94711 15 8.65768 15 9.5C15 10.3423 14.7106 11.0529 14.1317 11.6317C13.5529 12.2106 12.8423 12.5 12 12.5ZM12 21C10.7449 21 9.56987 20.7664 8.475 20.2991C7.38013 19.8317 6.42757 19.1929 5.6173 18.3827C4.80705 17.5724 4.16827 16.6199 3.70095 15.525C3.23365 14.4301 3 13.2551 3 12C3 10.7449 3.23365 9.56987 3.70095 8.475C4.16827 7.38013 4.80705 6.42757 5.6173 5.6173C6.42757 4.80705 7.38013 4.16827 8.475 3.70095C9.56987 3.23365 10.7449 3 12 3C13.2551 3 14.4301 3.23365 15.525 3.70095C16.6199 4.16827 17.5724 4.80705 18.3827 5.6173C19.1929 6.42757 19.8317 7.38013 20.299 8.475C20.7663 9.56987 21 10.7449 21 12C21 13.2551 20.7663 14.4301 20.299 15.525C19.8317 16.6199 19.1929 17.5724 18.3827 18.3827C17.5724 19.1929 16.6199 19.8317 15.525 20.2991C14.4301 20.7664 13.2551 21 12 21Z" fill="#FF1919"/>
    </g>
</svg>
