<svg xmlns="http://www.w3.org/2000/svg" width="24" height="24" viewBox="0 0 24 24" fill="none">
    <mask id="mask0_467_1844" style="mask-type:alpha" maskUnits="userSpaceOnUse" x="0" y="0" width="24" height="24">
        <rect width="24" height="24" fill="#D9D9D9"/>
    </mask>
    <g mask="url(#mask0_467_1844)">
        <path d="M13.1438 21H10.8361C10.6374 21 10.4656 20.9327 10.3207 20.7981C10.1758 20.6635 10.0867 20.4968 10.0534 20.2981L9.77263 18.1077C9.4534 18.0115 9.1082 17.8603 8.73705 17.6538C8.3659 17.4474 8.0502 17.2263 7.78993 16.9904L5.788 17.8519C5.59314 17.9353 5.40147 17.9436 5.213 17.8769C5.02455 17.8103 4.87648 17.6878 4.76878 17.5096L3.61108 15.4962C3.5034 15.318 3.47135 15.1295 3.51493 14.9308C3.55851 14.7321 3.66108 14.5705 3.82263 14.4462L5.563 13.1365C5.53352 12.9558 5.50916 12.7695 5.48993 12.5779C5.4707 12.3862 5.46108 12.2 5.46108 12.0192C5.46108 11.8513 5.4707 11.6747 5.48993 11.4894C5.50916 11.3042 5.53352 11.0955 5.563 10.8635L3.82263 9.55385C3.66108 9.42948 3.55851 9.26794 3.51493 9.06922C3.47135 8.87051 3.5034 8.68205 3.61108 8.50385L4.76878 6.52885C4.87263 6.34678 5.01654 6.22338 5.2005 6.15865C5.38449 6.0939 5.57391 6.10319 5.76878 6.18653L7.77071 7.02885C8.06942 6.78013 8.3925 6.55578 8.73993 6.35578C9.08736 6.15578 9.42519 6.00128 9.7534 5.8923L10.0534 3.70193C10.0867 3.50321 10.1758 3.33654 10.3207 3.20193C10.4656 3.06731 10.6374 3 10.8361 3H13.1438C13.3425 3 13.5175 3.06731 13.6688 3.20193C13.8201 3.33654 13.9124 3.50321 13.9457 3.70193L14.2265 5.91153C14.6098 6.04614 14.9486 6.20063 15.2428 6.375C15.5371 6.54935 15.8399 6.7673 16.1515 7.02885L18.2303 6.18653C18.4252 6.10319 18.6137 6.09166 18.7957 6.15193C18.9778 6.21218 19.1226 6.3314 19.2303 6.5096L20.388 8.50385C20.4957 8.68205 20.5278 8.87051 20.4842 9.06922C20.4406 9.26794 20.338 9.42948 20.1765 9.55385L18.3592 10.9212C18.4143 11.1276 18.4451 11.317 18.4515 11.4894C18.4579 11.6619 18.4611 11.832 18.4611 12C18.4611 12.1551 18.4547 12.3189 18.4419 12.4914C18.429 12.6638 18.3996 12.8724 18.3534 13.1173L20.1323 14.4462C20.3066 14.5577 20.4124 14.716 20.4496 14.9212C20.4867 15.1263 20.4515 15.318 20.3438 15.4962L19.1861 17.5038C19.0784 17.682 18.9294 17.8022 18.739 17.8644C18.5486 17.9266 18.356 17.916 18.1611 17.8327L16.1515 16.9712C15.8399 17.2327 15.5265 17.4571 15.2111 17.6442C14.8957 17.8314 14.5675 17.9795 14.2265 18.0885L13.9457 20.2981C13.9124 20.4968 13.8201 20.6635 13.6688 20.7981C13.5175 20.9327 13.3425 21 13.1438 21ZM11.9726 14.5C12.6701 14.5 13.2611 14.2577 13.7457 13.7731C14.2303 13.2885 14.4726 12.6974 14.4726 12C14.4726 11.3026 14.2303 10.7115 13.7457 10.2269C13.2611 9.74231 12.6701 9.5 11.9726 9.5C11.2713 9.5 10.6794 9.74231 10.1967 10.2269C9.71397 10.7115 9.47263 11.3026 9.47263 12C9.47263 12.6974 9.71397 13.2885 10.1967 13.7731C10.6794 14.2577 11.2713 14.5 11.9726 14.5Z" fill="#FF1919"/>
    </g>
</svg>
