<svg width="17" height="17" viewBox="0 0 17 17" fill="none" xmlns="http://www.w3.org/2000/svg">
    <mask id="mask0_568_1095" style="mask-type:alpha" maskUnits="userSpaceOnUse" x="0" y="0" width="17" height="17">
        <rect width="17" height="17" fill="#D9D9D9"/>
    </mask>
    <g mask="url(#mask0_568_1095)">
        <path d="M5.58572 14.0249C5.46494 14.1221 5.33758 14.1269 5.20363 14.0392C5.06968 13.9516 5.02769 13.832 5.07764 13.6803L6.18099 10.0638L3.34769 8.02735C3.2151 7.93745 3.1731 7.81667 3.2217 7.66502C3.27028 7.51335 3.37267 7.43752 3.52887 7.43752H7.05821L8.19018 3.6875C8.21379 3.60214 8.25465 3.54176 8.31277 3.50634C8.37089 3.47092 8.43309 3.45322 8.49938 3.45322C8.56567 3.45322 8.62787 3.47092 8.68599 3.50634C8.74411 3.54176 8.78498 3.60214 8.80859 3.6875L9.94056 7.43752H13.4699C13.6261 7.43752 13.7285 7.51335 13.7771 7.66502C13.8257 7.81667 13.7837 7.93745 13.6511 8.02735L10.8178 10.0638L11.9211 13.6803C11.9711 13.832 11.9291 13.9516 11.7951 14.0392C11.6612 14.1269 11.5338 14.1221 11.413 14.0249L8.49938 11.8182L5.58572 14.0249Z" fill="#FFCC19"/>
    </g>
</svg>
