<svg xmlns="http://www.w3.org/2000/svg" width="24" height="24" viewBox="0 0 24 24" fill="none">
    <mask id="mask0_465_1599" style="mask-type:alpha" maskUnits="userSpaceOnUse" x="0" y="0" width="24" height="24">
        <rect width="24" height="24" fill="#D9D9D9"/>
    </mask>
    <g mask="url(#mask0_465_1599)">
        <path d="M5.61538 21C5.16794 21 4.78685 20.8426 4.4721 20.5279C4.15737 20.2131 4 19.8321 4 19.3846V8.61538C4 8.16794 4.15737 7.78685 4.4721 7.4721C4.78685 7.15737 5.16794 7 5.61538 7H8C8 5.8859 8.38814 4.94071 9.16442 4.16443C9.94071 3.38814 10.8859 3 12 3C13.1141 3 14.0593 3.38814 14.8356 4.16443C15.6119 4.94071 16 5.8859 16 7H18.3846C18.8321 7 19.2132 7.15737 19.5279 7.4721C19.8426 7.78685 20 8.16794 20 8.61538V19.3846C20 19.8321 19.8426 20.2131 19.5279 20.5279C19.2132 20.8426 18.8321 21 18.3846 21H5.61538ZM5.61538 20H18.3846C18.5385 20 18.6795 19.9359 18.8077 19.8077C18.9359 19.6795 19 19.5385 19 19.3846V8.61538C19 8.46154 18.9359 8.32052 18.8077 8.1923C18.6795 8.0641 18.5385 8 18.3846 8H5.61538C5.46154 8 5.32052 8.0641 5.1923 8.1923C5.0641 8.32052 5 8.46154 5 8.61538V19.3846C5 19.5385 5.0641 19.6795 5.1923 19.8077C5.32052 19.9359 5.46154 20 5.61538 20ZM9 7H15C15 6.16667 14.7083 5.45833 14.125 4.875C13.5417 4.29167 12.8333 4 12 4C11.1667 4 10.4583 4.29167 9.875 4.875C9.29167 5.45833 9 6.16667 9 7ZM11.9942 13C13.0224 13 13.9372 12.643 14.7385 11.9289C15.5398 11.2148 15.9385 10.3942 15.9346 9.4673C15.9346 9.33782 15.8878 9.22757 15.7942 9.13655C15.7006 9.04552 15.5827 9 15.4404 9C15.3224 9 15.2167 9.04615 15.1231 9.13845C15.0295 9.23077 14.9667 9.34359 14.9346 9.47693C14.8282 10.2 14.4955 10.8013 13.9365 11.2808C13.3776 11.7603 12.7301 12 11.9942 12C11.2583 12 10.6099 11.7603 10.0491 11.2808C9.48815 10.8013 9.15642 10.2 9.05385 9.47693C9.0218 9.33974 8.9609 9.22596 8.87115 9.13557C8.7814 9.04519 8.67756 9 8.55963 9C8.41731 9 8.29839 9.04552 8.20287 9.13655C8.10736 9.22757 8.0596 9.33782 8.0596 9.4673C8.0596 10.3942 8.45832 11.2148 9.25577 11.9289C10.0532 12.643 10.966 13 11.9942 13Z" fill="#7A7B7D"/>
    </g>
</svg>
