<svg xmlns="http://www.w3.org/2000/svg" width="24" height="24" viewBox="0 0 24 24" fill="none">
    <mask id="mask0_467_1832" style="mask-type:alpha" maskUnits="userSpaceOnUse" x="0" y="0" width="24" height="24">
        <rect width="24" height="24" fill="#D9D9D9"/>
    </mask>
    <g mask="url(#mask0_467_1832)">
        <path d="M5.61538 21C5.15513 21 4.77083 20.8458 4.4625 20.5375C4.15417 20.2292 4 19.8449 4 19.3846V8.61538C4 8.15513 4.15417 7.77083 4.4625 7.4625C4.77083 7.15417 5.15513 7 5.61538 7H8C8 5.8859 8.38814 4.94071 9.16442 4.16443C9.94071 3.38814 10.8859 3 12 3C13.1141 3 14.0593 3.38814 14.8356 4.16443C15.6119 4.94071 16 5.8859 16 7H18.3846C18.8449 7 19.2292 7.15417 19.5375 7.4625C19.8458 7.77083 20 8.15513 20 8.61538V19.3846C20 19.8449 19.8458 20.2292 19.5375 20.5375C19.2292 20.8458 18.8449 21 18.3846 21H5.61538ZM9 7H15C15 6.16667 14.7083 5.45833 14.125 4.875C13.5417 4.29167 12.8333 4 12 4C11.1667 4 10.4583 4.29167 9.875 4.875C9.29167 5.45833 9 6.16667 9 7ZM11.9942 13C13.0224 13 13.9372 12.643 14.7385 11.9289C15.5398 11.2148 15.9385 10.3942 15.9346 9.4673C15.9346 9.33782 15.8878 9.22757 15.7942 9.13655C15.7006 9.04552 15.5827 9 15.4404 9C15.3224 9 15.2167 9.04615 15.1231 9.13845C15.0295 9.23077 14.9667 9.34359 14.9346 9.47693C14.8282 10.2 14.4955 10.8013 13.9365 11.2808C13.3776 11.7603 12.7301 12 11.9942 12C11.2583 12 10.6099 11.7603 10.0491 11.2808C9.48815 10.8013 9.15642 10.2 9.05385 9.47693C9.0218 9.33974 8.9609 9.22596 8.87115 9.13557C8.7814 9.04519 8.67756 9 8.55963 9C8.41731 9 8.29839 9.04552 8.20287 9.13655C8.10736 9.22757 8.0596 9.33782 8.0596 9.4673C8.0596 10.3942 8.45832 11.2148 9.25577 11.9289C10.0532 12.643 10.966 13 11.9942 13Z" fill="#FF1919"/>
    </g>
</svg>
